<svg width="50" height="50" xmlns="http://www.w3.org/2000/svg">

 <g>
  <title>background</title>
  <rect fill="none" id="canvas_background" height="52" width="52" y="-1" x="-1"/>
 </g>
 <g>
  <title>Layer 1</title>
  <path stroke="null" id="svg_1" fill-rule="evenodd" clip-rule="evenodd" fill="#3A589B" d="m21.518998,38.570099l5.594387,0l0,-13.539677l3.73208,0l0.494403,-4.665307l-4.226483,0l0.005807,-2.335972c0,-1.216099 0.116135,-1.868943 1.861477,-1.868943l2.332654,0l0,-4.666137l-3.732909,0c-4.483639,0 -6.061415,2.263802 -6.061415,6.069711l0,2.801341l-2.794705,0l0,4.666137l2.794705,0l0,13.538848zm3.513083,11.348045c-13.743743,0 -24.886063,-11.14232 -24.886063,-24.886063c0,-13.744572 11.14232,-24.886063 24.886063,-24.886063s24.886063,11.14149 24.886063,24.886063c0,13.743743 -11.14232,24.886063 -24.886063,24.886063z"/>
 </g>
</svg>