<svg width="50" height="50" xmlns="http://www.w3.org/2000/svg">
 <g>
  <title>background</title>
  <rect x="-1" y="-1" width="52" height="52" id="canvas_background" fill="none"/>
 </g>

 <g>
  <title>Layer 1</title>
  <path stroke="null" d="m25.083354,0.270991c-13.668113,0 -24.750039,11.081927 -24.750039,24.750039c0,10.936907 7.090886,20.212129 16.926513,23.484113c1.237212,0.226618 1.6889,-0.537782 1.6889,-1.190371c0,-0.589167 -0.022672,-2.540843 -0.034756,-4.607375c-6.882396,1.495492 -8.337138,-2.918523 -8.337138,-2.918523c-1.1269,-2.858098 -2.747835,-3.619451 -2.747835,-3.619451c-2.249305,-1.534792 0.17064,-1.50458 0.17064,-1.50458c2.484962,0.172187 3.793234,2.549931 3.793234,2.549931c2.208554,3.782599 5.794748,2.688908 7.202648,2.054446c0.224974,-1.595217 0.865478,-2.688908 1.571047,-3.305242c-5.494122,-0.625373 -11.27374,-2.749333 -11.27374,-12.233045c0,-2.704038 0.9653,-4.909499 2.545387,-6.642195c-0.252286,-0.628419 -1.104277,-3.146639 0.244696,-6.553056c0,0 2.07562,-0.664674 6.806841,2.537846c1.972849,-0.551365 4.089267,-0.823277 6.193552,-0.832365c2.102786,0.009088 4.220655,0.283997 6.196598,0.835362c4.72223,-3.205517 6.800847,-2.537846 6.800847,-2.537846c1.353518,3.409463 0.501527,5.924637 0.247742,6.550059c1.586129,1.732696 2.543888,3.938205 2.543888,6.642195c0,9.507882 -5.788705,11.601581 -11.302454,12.214918c0.891292,0.767396 1.679812,2.271976 1.679812,4.580207c0,3.308288 -0.033258,5.976023 -0.033258,6.791759c0,0.658631 0.450141,1.429025 1.703982,1.187325c9.828134,-3.278027 16.91293,-12.553249 16.91293,-23.484113c0,-13.668113 -11.081927,-24.750039 -24.750039,-24.750039l0.000001,-0.000001z" id="svg_1"/>
 </g>
</svg>