<svg width="50" height="50" xmlns="http://www.w3.org/2000/svg">

 <g>
  <title>background</title>
  <rect fill="none" id="canvas_background" height="52" width="52" y="-1" x="-1"/>
 </g>
 <g>
  <title>Layer 1</title>
  <path stroke="null" id="svg_1" fill-rule="evenodd" clip-rule="evenodd" fill="#007AB9" d="m38.998993,36.759246l0,-9.715523c0,-5.205337 -2.778945,-7.627581 -6.483651,-7.627581c-2.989647,0 -4.329347,1.644969 -5.075929,2.798854l0,-2.400676l-5.632548,0c0.074658,1.59022 0,16.944927 0,16.944927l5.632548,0l0,-9.463344c0,-0.505187 0.0365,-1.011204 0.185816,-1.372882c0.406473,-1.012034 1.333064,-2.059737 2.888444,-2.059737c2.038999,0 2.853603,1.55372 2.853603,3.830796l0,9.065996l5.631718,0l0,-0.00083zm-23.125798,-19.257673c1.963511,0 3.187076,-1.302371 3.187076,-2.929091c-0.0365,-1.66156 -1.223565,-2.926602 -3.149747,-2.926602s-3.186247,1.264212 -3.186247,2.926602c0,1.62672 1.222736,2.929091 3.113248,2.929091l0.03567,0zm9.158904,32.416598c-13.743748,0 -24.886073,-11.142324 -24.886073,-24.886073c0,-13.744578 11.142324,-24.886073 24.886073,-24.886073s24.886073,11.141495 24.886073,24.886073c0,13.743748 -11.142324,24.886073 -24.886073,24.886073zm-6.34263,-13.158926l0,-16.944927l-5.631718,0l0,16.944927l5.631718,0z"/>
 </g>
</svg>